# xmcd
# 
# Track frame offsets:
#     150
#     13727
#     29927
#     44777
#     62310
#     80791
#     96043
#     114194
#     128115
#     143076
#     156446
#     170748
# 
# Disc length: 2465
# 
# Revision: 0
# Processed by: cddbd v1.5.2PL0 Copyright (c) Steve Scherf et al.
# Submitted via: fre:ac v1.0.31
# 
DISCID=a8099f0c
DTITLE=Therapiezentrum - HERZ.RHYTHMUS.STÖRUNG
DYEAR=2014
DGENRE=Deutsch
TTITLE0=Kein Versprechen
TTITLE1=Wir sagen kein Wort
TTITLE2=Duell
TTITLE3=Was ist es wert?
TTITLE4=Tanz im Teufelskreis
TTITLE5=Du bleibst
TTITLE6=Ein Jahr geht zu Ende
TTITLE7=Allein
TTITLE8=Tanzen
TTITLE9=Vollrausch
TTITLE10=Wir machen uns kaputt
TTITLE11=Kein Versprechen (Radio Edit)
EXTD=
EXTT0=
EXTT1=
EXTT2=
EXTT3=
EXTT4=
EXTT5=
EXTT6=
EXTT7=
EXTT8=
EXTT9=
EXTT10=
EXTT11=
PLAYORDER=
